<svg xmlns="http://www.w3.org/2000/svg" width="564" height="213" viewBox="0 0 564 213" fill="none"><g clip-path="url(#svgf0444b8f-clip0_12971_287)"><rect width="564" height="213" rx="8" fill="#1D63ED"></rect><g clip-path="url(#svgf0444b8f-clip1_12971_287)"><path d="M-43.7295 -37.0623H564V304.786H-43.7295V-37.0623Z" fill="url(#svgf0444b8f-paint0_linear_12971_287)"></path><mask id="svgf0444b8f-mask0_12971_287" style="mask-type:luminance" maskUnits="userSpaceOnUse" x="-44" y="-38" width="608" height="343"><path d="M564 -37.0623H-43.7295V304.786H564V-37.0623Z" fill="white"></path></mask><g mask="url(#svgf0444b8f-mask0_12971_287)"><g opacity="0.3" filter="url(#svgf0444b8f-filter0_d_12971_287)"><path d="M-303.385 308.258L564 307.951V-398.56C195.706 -383.965 478.93 58.1423 172.543 9.43216C-133.844 -39.2748 -303.385 308.258 -303.385 308.258Z" fill="#1D63ED"></path></g><g opacity="0.3" filter="url(#svgf0444b8f-filter1_d_12971_287)"><path d="M-149.5 304.89L564 304.665V-285.313C364.003 -290.574 478.152 86.9873 192.636 46.3138C-92.8796 5.6402 -149.5 304.89 -149.5 304.89Z" fill="#1D63ED"></path></g><g opacity="0.3" filter="url(#svgf0444b8f-filter2_d_12971_287)"><path d="M-76.0911 304.89L564 304.713V-158.662C384.58 -162.793 486.983 133.748 230.844 101.801C-25.295 69.8538 -76.0911 304.89 -76.0911 304.89Z" fill="#1D63ED"></path></g><g opacity="0.3" filter="url(#svgf0444b8f-filter3_d_12971_287)"><path d="M-11.3204 304.89L564 304.76V-37.0623C402.736 -40.1104 494.776 178.64 264.557 155.075C34.3353 131.51 -11.3204 304.89 -11.3204 304.89Z" fill="#1D63ED"></path></g><g opacity="0.3" filter="url(#svgf0444b8f-filter4_d_12971_287)"><path d="M131.176 304.884L564 304.786V30.9211C455.08 36.3464 511.166 218.887 328.369 200.177C145.569 181.464 131.176 304.887 131.176 304.887V304.884Z" fill="#1D63ED"></path></g><g opacity="0.3" filter="url(#svgf0444b8f-filter5_d_12971_287)"><path d="M226.653 304.89C316.372 304.393 564 304.786 564 304.786V80.2295C497.973 101.82 517.404 189.621 451.912 219.127C386.42 248.634 284.948 211.211 226.653 304.89Z" fill="#1D63ED"></path></g><g opacity="0.3" filter="url(#svgf0444b8f-filter6_d_12971_287)"><path d="M339.029 304.89C404.879 305.093 563.997 304.786 563.997 304.786V152.917C505.886 180.983 535.392 228.936 479.257 255.11C447.189 270.063 363.389 260.149 339.026 304.89H339.029Z" fill="#1D63ED"></path></g></g></g><path opacity="0.32" d="M306 142.5C306 142.5 318 136.78 318 128.201V118.192L309.25 115.065C307.147 114.312 304.848 114.312 302.746 115.065L294 118.192V128.201C294 136.78 306 142.5 306 142.5Z" fill="white"></path><path d="M290 102.5H266M274 118.5H266M298 86.5H266M314 98.5V85.7C314 78.9794 314 75.6191 312.692 73.0521C311.542 70.7942 309.706 68.9584 307.448 67.8079C304.881 66.5 301.521 66.5 294.8 66.5H269.2C262.479 66.5 259.119 66.5 256.552 67.8079C254.294 68.9584 252.458 70.7942 251.308 73.0521C250 75.6191 250 78.9794 250 85.7V127.3C250 134.021 250 137.381 251.308 139.948C252.458 142.206 254.294 144.042 256.552 145.192C259.119 146.5 262.479 146.5 269.2 146.5H284M306 142.5C306 142.5 318 136.78 318 128.201V118.192L309.25 115.065C307.147 114.312 304.848 114.312 302.746 115.065L294 118.192V128.201C294 136.78 306 142.5 306 142.5Z" stroke="white" stroke-width="4" stroke-linecap="round" stroke-linejoin="round"></path></g><rect x="0.379781" y="0.379781" width="563.24" height="212.24" rx="7.62022" stroke="black" stroke-opacity="0.07" stroke-width="0.759563"></rect><defs><filter id="svgf0444b8f-filter0_d_12971_287" x="-337.225" y="-433.34" width="935.065" height="774.498" filterUnits="userSpaceOnUse" color-interpolation-filters="sRGB"><feFlood flood-opacity="0" result="BackgroundImageFix"></feFlood><feColorMatrix in="SourceAlpha" type="matrix" values="0 0 0 0 0 0 0 0 0 0 0 0 0 0 0 0 0 0 127 0" result="hardAlpha"></feColorMatrix><feOffset dy="-0.94"></feOffset><feGaussianBlur stdDeviation="16.92"></feGaussianBlur><feComposite in2="hardAlpha" operator="out"></feComposite><feColorMatrix type="matrix" values="0 0 0 0 0 0 0 0 0 0 0 0 0 0 0 0 0 0 0.16 0"></feColorMatrix><feBlend mode="normal" in2="BackgroundImageFix" result="effect1_dropShadow_12971_287"></feBlend><feBlend mode="normal" in="SourceGraphic" in2="effect1_dropShadow_12971_287" result="shape"></feBlend></filter><filter id="svgf0444b8f-filter1_d_12971_287" x="-183.34" y="-320.148" width="781.18" height="657.938" filterUnits="userSpaceOnUse" color-interpolation-filters="sRGB"><feFlood flood-opacity="0" result="BackgroundImageFix"></feFlood><feColorMatrix in="SourceAlpha" type="matrix" values="0 0 0 0 0 0 0 0 0 0 0 0 0 0 0 0 0 0 127 0" result="hardAlpha"></feColorMatrix><feOffset dy="-0.94"></feOffset><feGaussianBlur stdDeviation="16.92"></feGaussianBlur><feComposite in2="hardAlpha" operator="out"></feComposite><feColorMatrix type="matrix" values="0 0 0 0 0 0 0 0 0 0 0 0 0 0 0 0 0 0 0.16 0"></feColorMatrix><feBlend mode="normal" in2="BackgroundImageFix" result="effect1_dropShadow_12971_287"></feBlend><feBlend mode="normal" in="SourceGraphic" in2="effect1_dropShadow_12971_287" result="shape"></feBlend></filter><filter id="svgf0444b8f-filter2_d_12971_287" x="-109.931" y="-193.485" width="707.771" height="531.275" filterUnits="userSpaceOnUse" color-interpolation-filters="sRGB"><feFlood flood-opacity="0" result="BackgroundImageFix"></feFlood><feColorMatrix in="SourceAlpha" type="matrix" values="0 0 0 0 0 0 0 0 0 0 0 0 0 0 0 0 0 0 127 0" result="hardAlpha"></feColorMatrix><feOffset dy="-0.94"></feOffset><feGaussianBlur stdDeviation="16.92"></feGaussianBlur><feComposite in2="hardAlpha" operator="out"></feComposite><feColorMatrix type="matrix" values="0 0 0 0 0 0 0 0 0 0 0 0 0 0 0 0 0 0 0.16 0"></feColorMatrix><feBlend mode="normal" in2="BackgroundImageFix" result="effect1_dropShadow_12971_287"></feBlend><feBlend mode="normal" in="SourceGraphic" in2="effect1_dropShadow_12971_287" result="shape"></feBlend></filter><filter id="svgf0444b8f-filter3_d_12971_287" x="-45.1604" y="-71.8739" width="643" height="409.664" filterUnits="userSpaceOnUse" color-interpolation-filters="sRGB"><feFlood flood-opacity="0" result="BackgroundImageFix"></feFlood><feColorMatrix in="SourceAlpha" type="matrix" values="0 0 0 0 0 0 0 0 0 0 0 0 0 0 0 0 0 0 127 0" result="hardAlpha"></feColorMatrix><feOffset dy="-0.94"></feOffset><feGaussianBlur stdDeviation="16.92"></feGaussianBlur><feComposite in2="hardAlpha" operator="out"></feComposite><feColorMatrix type="matrix" values="0 0 0 0 0 0 0 0 0 0 0 0 0 0 0 0 0 0 0.16 0"></feColorMatrix><feBlend mode="normal" in2="BackgroundImageFix" result="effect1_dropShadow_12971_287"></feBlend><feBlend mode="normal" in="SourceGraphic" in2="effect1_dropShadow_12971_287" result="shape"></feBlend></filter><filter id="svgf0444b8f-filter4_d_12971_287" x="97.3364" y="-3.85886" width="500.504" height="341.646" filterUnits="userSpaceOnUse" color-interpolation-filters="sRGB"><feFlood flood-opacity="0" result="BackgroundImageFix"></feFlood><feColorMatrix in="SourceAlpha" type="matrix" values="0 0 0 0 0 0 0 0 0 0 0 0 0 0 0 0 0 0 127 0" result="hardAlpha"></feColorMatrix><feOffset dy="-0.94"></feOffset><feGaussianBlur stdDeviation="16.92"></feGaussianBlur><feComposite in2="hardAlpha" operator="out"></feComposite><feColorMatrix type="matrix" values="0 0 0 0 0 0 0 0 0 0 0 0 0 0 0 0 0 0 0.16 0"></feColorMatrix><feBlend mode="normal" in2="BackgroundImageFix" result="effect1_dropShadow_12971_287"></feBlend><feBlend mode="normal" in="SourceGraphic" in2="effect1_dropShadow_12971_287" result="shape"></feBlend></filter><filter id="svgf0444b8f-filter5_d_12971_287" x="192.813" y="45.4495" width="405.027" height="292.34" filterUnits="userSpaceOnUse" color-interpolation-filters="sRGB"><feFlood flood-opacity="0" result="BackgroundImageFix"></feFlood><feColorMatrix in="SourceAlpha" type="matrix" values="0 0 0 0 0 0 0 0 0 0 0 0 0 0 0 0 0 0 127 0" result="hardAlpha"></feColorMatrix><feOffset dy="-0.94"></feOffset><feGaussianBlur stdDeviation="16.92"></feGaussianBlur><feComposite in2="hardAlpha" operator="out"></feComposite><feColorMatrix type="matrix" values="0 0 0 0 0 0 0 0 0 0 0 0 0 0 0 0 0 0 0.16 0"></feColorMatrix><feBlend mode="normal" in2="BackgroundImageFix" result="effect1_dropShadow_12971_287"></feBlend><feBlend mode="normal" in="SourceGraphic" in2="effect1_dropShadow_12971_287" result="shape"></feBlend></filter><filter id="svgf0444b8f-filter6_d_12971_287" x="305.186" y="118.137" width="292.651" height="219.723" filterUnits="userSpaceOnUse" color-interpolation-filters="sRGB"><feFlood flood-opacity="0" result="BackgroundImageFix"></feFlood><feColorMatrix in="SourceAlpha" type="matrix" values="0 0 0 0 0 0 0 0 0 0 0 0 0 0 0 0 0 0 127 0" result="hardAlpha"></feColorMatrix><feOffset dy="-0.94"></feOffset><feGaussianBlur stdDeviation="16.92"></feGaussianBlur><feComposite in2="hardAlpha" operator="out"></feComposite><feColorMatrix type="matrix" values="0 0 0 0 0 0 0 0 0 0 0 0 0 0 0 0 0 0 0.16 0"></feColorMatrix><feBlend mode="normal" in2="BackgroundImageFix" result="effect1_dropShadow_12971_287"></feBlend><feBlend mode="normal" in="SourceGraphic" in2="effect1_dropShadow_12971_287" result="shape"></feBlend></filter><linearGradient id="svgf0444b8f-paint0_linear_12971_287" x1="33.2812" y1="-174.653" x2="379.041" y2="295.568" gradientUnits="userSpaceOnUse"><stop stop-color="#1D63ED"></stop><stop offset="0.4" stop-color="#1D63ED"></stop><stop offset="0.78" stop-color="#13429E"></stop><stop offset="1" stop-color="#0C2963"></stop></linearGradient><clipPath id="svgf0444b8f-clip0_12971_287"><rect width="564" height="213" rx="8" fill="white"></rect></clipPath><clipPath id="svgf0444b8f-clip1_12971_287"><rect width="564" height="296.1" fill="white"></rect></clipPath></defs></svg>